<?xml version="1.0" encoding="utf-8"?>
<!-- Generator: Adobe Illustrator 24.2.3, SVG Export Plug-In . SVG Version: 6.00 Build 0)  -->
<svg version="1.1" id="Layer_1" xmlns="http://www.w3.org/2000/svg" xmlns:xlink="http://www.w3.org/1999/xlink" x="0px" y="0px"
	 viewBox="0 0 512 512" style="enable-background:new 0 0 512 512;" xml:space="preserve">
<style type="text/css">
	.st0{fill:#FFFFFF;}
	.st1{fill:url(#SVGID_1_);}
	.st2{fill:#5E5B5F;}
	.st3{fill:#8B878C;}
	.st4{fill:#C3BEC3;}
	.st5{fill:#DAD5DB;}
	.st6{fill:#E3DFE4;}
	.st7{fill:#EFEDF0;}
	.st8{fill:#87818F;stroke:#2F2E38;stroke-width:0.5017;stroke-miterlimit:10.0344;}
	.st9{fill:#87818F;stroke:#2F2E38;stroke-width:0.5;stroke-miterlimit:10;}
	.st10{fill:#303030;}
	.st11{fill:#D2D2DB;stroke:#9F9D9F;stroke-width:0.5;stroke-miterlimit:10;}
	.st12{fill:#2D2D2D;}
	.st13{fill:#CBCBCB;}
	.st14{fill:#D11307;}
	.st15{fill:#E22905;}
	.st16{fill:#ED4601;}
	.st17{fill:#F17A1A;}
	.st18{fill:#383838;}
	.st19{fill:#3E3E3E;}
	.st20{fill:#414141;}
</style>
<g>
	<circle class="st0" cx="256" cy="256" r="256"/>
	
		<linearGradient id="SVGID_1_" gradientUnits="userSpaceOnUse" x1="306" y1="861.8816" x2="306" y2="394.1184" gradientTransform="matrix(1 0 0 -1 -50 884)">
		<stop  offset="0" style="stop-color:#4E4E4E"/>
		<stop  offset="1" style="stop-color:#000000"/>
	</linearGradient>
	<circle class="st1" cx="256" cy="256" r="233.88"/>
	<circle class="st2" cx="256" cy="258.56" r="217.35"/>
	<circle class="st3" cx="257.04" cy="245.25" r="208.2"/>
	<circle class="st4" cx="249.55" cy="236.48" r="199.48"/>
	<ellipse class="st5" cx="253.5" cy="227.82" rx="184.52" ry="169.27"/>
	<ellipse class="st6" cx="254.05" cy="153.15" rx="124.85" ry="94.62"/>
	<path class="st0" d="M160.26,78.42c0,0,144.26-50.26,237.2,39.16C397.46,117.58,314.06-1.06,160.26,78.42z"/>
	<ellipse class="st7" cx="257.47" cy="104.14" rx="47.64" ry="32.15"/>
	
		<ellipse transform="matrix(0.867 -0.4983 0.4983 0.867 -29.9089 181.8644)" class="st8" cx="325.76" cy="146.96" rx="33.39" ry="57.21"/>
	
		<ellipse transform="matrix(0.8886 -0.4586 0.4586 0.8886 -27.2754 208.5734)" class="st9" cx="415.79" cy="160.44" rx="11.28" ry="26.3"/>
	<ellipse transform="matrix(0.5 -0.866 0.866 0.5 -65.2535 530.8789)" class="st9" cx="427.13" cy="321.95" rx="29.98" ry="11.35"/>
	
		<ellipse transform="matrix(0.975 -0.2222 0.2222 0.975 -84.9572 74.4253)" class="st9" cx="288.24" cy="414.73" rx="53.04" ry="20.38"/>
	
		<ellipse transform="matrix(0.6805 -0.7328 0.7328 0.6805 -239.9116 220.3011)" class="st9" cx="132.65" cy="385.24" rx="15.09" ry="35.76"/>
	
		<ellipse transform="matrix(0.975 -0.2222 0.2222 0.975 -61.1143 27.5836)" class="st9" cx="92.01" cy="285.36" rx="13.76" ry="29.39"/>
	
		<ellipse transform="matrix(0.7646 -0.6445 0.6445 0.7646 -51.3306 116.3083)" class="st9" cx="133.55" cy="128.42" rx="34.2" ry="14.6"/>
	
		<ellipse transform="matrix(0.997 -0.0769 0.0769 0.997 -3.9025 18.1245)" class="st9" cx="233.41" cy="59.74" rx="19.09" ry="6.41"/>
	
		<ellipse transform="matrix(0.3435 -0.9392 0.9392 0.3435 -126.7822 196.2549)" class="st9" cx="76.98" cy="188.81" rx="19.56" ry="6.72"/>
	
		<ellipse transform="matrix(0.7842 -0.6205 0.6205 0.7842 -166.0432 324.4023)" class="st10" cx="383.41" cy="400.94" rx="24.88" ry="8.91"/>
	
		<ellipse transform="matrix(0.4034 -0.915 0.915 0.4034 -294.2886 434.48)" class="st10" cx="186.04" cy="442.92" rx="7.21" ry="20.07"/>
	<circle class="st11" cx="151.98" cy="236.5" r="15.79"/>
	<circle class="st11" cx="364.13" cy="188.89" r="12.72"/>
	<path class="st10" d="M160.58,196.61c2.25,10.08,9.03,14.58,15.03,14.07c11.24-0.94,25.46-8.52,25.46-19.8s-9.15-17.74-20.48-17.74
		S158.21,185.96,160.58,196.61z"/>
	<path class="st10" d="M347.18,159.21c0,8.72-7.17,15.65-19.42,15.65s-19.44-6.92-19.44-15.65s6.72-13.89,18.98-13.89
		C339.58,145.33,347.18,150.51,347.18,159.21z"/>
	<path class="st12" d="M378.57,253.95c-1.29-5.01-3.01-9.89-5.14-14.6c-11.49-25.37-37.95-49.91-98.43-40.35
		c-38.58,6.14-69.26,18.43-83.56,46.47c-6.59,12.88-9.05,28.9-9.2,46.71c-0.14,7.78,0.23,15.87,0.88,24.21
		c0.12,2.05,0.31,4.22,0.49,6.33c4.89,53,43.21,57.9,98.94,45.22c34.32-7.86,67.71-22.2,85.65-43.4
		c9.44-11.08,12.74-22.34,13.82-39.28C382.46,274.71,381.29,264.16,378.57,253.95z"/>
	<path class="st0" d="M334.25,212.99c-61.77,8.38-116.39,28.9-130.7,34.57c-1.2,0.46-2.55-0.14-3.01-1.35
		c-0.18-0.48-0.2-1.01-0.06-1.5c0,0,64.41-52.04,134.64-34.98c0.8,0.61,0.96,1.75,0.35,2.55
		C335.17,212.67,334.73,212.93,334.25,212.99z"/>
	<path class="st13" d="M335.11,209.74c-70.23-17.06-134.64,34.98-134.64,34.98c2.23-7.09,12.49-21.87,57.34-36.02
		C305.91,193.45,327.8,204.21,335.11,209.74z"/>
	<path class="st14" d="M330.49,340.91c-22.25,11.67-46.32,19.45-71.19,23.02c-26.62,3.71-58.37,2.76-63.71-20.91
		c-1.13-5.35-0.77-10.91,1.04-16.08c0.14,2.05,4.49,53.47,97.1,18.23c89.52-34.1,64.29-62.44,61.44-65.29
		c1.39,0.93,2.72,1.94,3.99,3.03C359.16,282.91,397.43,306.11,330.49,340.91z"/>
	<path class="st15" d="M293.72,345.17c-92.61,35.25-96.95-16.26-97.1-18.23l0,0c0.54-1.56,1.17-3.09,1.88-4.59
		c2.46-5.01,5.5-9.71,9.05-14.01c-0.9,2.25-13.23,36.31,74.85,12.29c88.49-24.19,55.44-48.54,53.51-49.91
		c6.87,1.93,13.36,5.01,19.19,9.11l0,0C358.01,282.73,383.24,311.07,293.72,345.17z"/>
	<path class="st16" d="M282.42,320.63c-88.06,23.98-75.78-10.08-74.85-12.29c0.01-0.04,0.01-0.08,0-0.12
		c7.97-9.63,20.66-20.3,40.96-28.16c5.67-2.25,11.63-4.34,17.43-6.14c14.19-4.44,43.87-10.79,69.92-3.15l0,0
		C337.92,272.1,370.91,296.45,282.42,320.63z"/>
	
		<ellipse transform="matrix(0.9652 -0.2617 0.2617 0.9652 -66.0602 82.0839)" class="st17" cx="275.18" cy="289.09" rx="24.66" ry="9.77"/>
	<path class="st18" d="M374.19,283.59c-1.67-1.83-3.56-3.44-5.63-4.79c-1.42-1.22-2.92-2.35-4.49-3.38l0,0
		c-6.55-4.61-13.83-8.08-21.54-10.24c-0.03-0.01-0.07-0.01-0.1,0c-29.22-8.58-62.53-1.43-78.48,3.56
		c-6.53,2.05-13.19,4.4-19.56,6.94c-22.73,8.83-36.97,20.81-45.9,31.58c0.01,0.06,0.01,0.12,0,0.18c-2.66,3.14-5.07,6.48-7.21,9.99
		l-0.82-21.65c0,0,76.92-69.88,181.64-34.63C373.64,268.53,374.34,276.06,374.19,283.59z"/>
	<path class="st19" d="M372.02,261.16c-104.71-35.25-181.56,34.63-181.56,34.63l-0.18-4.1c0-2.87,0-5.61,0.29-8.19
		c0-0.45,0-0.94,0.1-1.39l0,0c1.8-1.68,74.12-69.12,177.52-34.26c1.09,2.86,2.02,5.78,2.79,8.74
		C371.32,258.05,371.71,259.65,372.02,261.16z"/>
	<path class="st20" d="M368.13,247.81c-103.4-34.82-175.72,32.58-177.52,34.26c1.66-16.31,12.67-30.15,28.18-35.45
		c33.24-11.42,67.27-20.4,101.83-26.85c18.61-3.55,37.27,5.91,45.4,23.02l0.16,0.33C366.9,244.59,367.53,246.15,368.13,247.81z"/>
</g>
</svg>
