<svg xmlns="http://www.w3.org/2000/svg" width="187" viewBox="0 0 156 20" fill="none"><path d="M97.75 14.46c0-2.742-1.472-4.04-5.57-4.935-2.28-.49-2.829-1.01-2.829-1.732 0-.895.809-1.299 2.31-1.299 1.818 0 3.607.549 5.31 1.328V4.214c-1.184-.606-3.03-1.068-5.195-1.068-4.07 0-6.176 1.761-6.176 4.676 0 2.309 1.067 4.156 5.281 4.964 2.511.52 3.03.924 3.03 1.76 0 .809-.519 1.328-2.308 1.328-2.05 0-4.503-.693-6.09-1.645v3.78c1.27.636 2.944 1.328 6.06 1.328 4.417 0 6.177-1.962 6.177-4.877m44.389-11.083v15.73h3.348V7.129l1.414 3.175 4.733 8.803h4.214V3.377H152.5v10.16l-1.27-2.944-3.809-7.216zm-21.27 0h-3.665v15.7h3.665zM112.96 14.46c0-2.742-1.472-4.04-5.57-4.935-2.28-.49-2.829-1.01-2.829-1.732 0-.895.808-1.299 2.309-1.299 1.818 0 3.608.549 5.311 1.328V4.214c-1.184-.606-3.031-1.068-5.195-1.068-4.07 0-6.177 1.761-6.177 4.676 0 2.309 1.068 4.156 5.282 4.964 2.511.52 3.03.924 3.03 1.76 0 .809-.519 1.328-2.309 1.328-2.049 0-4.502-.693-6.089-1.645v3.78c1.27.636 2.944 1.328 6.061 1.328 4.444 0 6.176-1.962 6.176-4.877M57.201 3.377v15.73h7.504l1.183-3.406h-5.022V3.377zm-14.863.001v3.405h4.07v12.324h3.665V6.783h4.358V3.378zm-5.339-.001h-4.82l-5.484 15.73h4.185l.78-2.656c.923.26 1.904.433 2.943.433q1.515 0 2.944-.433l.78 2.656h4.184zm-2.425 10.246a7.8 7.8 0 0 1-2.02-.289l2.02-6.869 2.02 6.87a7.6 7.6 0 0 1-2.02.288M77.692 3.377h-4.82l-5.483 15.7h4.185l.779-2.655c.923.26 1.905.433 2.944.433q1.515 0 2.944-.433l.779 2.656h4.185zm-2.424 10.246a7.8 7.8 0 0 1-2.02-.289l2.02-6.868 2.02 6.868a7.8 7.8 0 0 1-2.02.289m58.761-10.246h-4.82l-5.484 15.7h4.185l.78-2.655c.923.26 1.904.433 2.943.433q1.515 0 2.944-.433l.779 2.656h4.185zm-2.396 10.246a7.8 7.8 0 0 1-2.02-.289l2.02-6.868 2.021 6.868c-.664.174-1.328.289-2.021.289M5.682 8.832c-.288-.318-.721-.29-.923.086l-4.704 9.38c-.174.375.086.808.49.808h6.523a.53.53 0 0 0 .49-.317c1.443-2.915.578-7.331-1.876-9.957M9.117.289C6.49 4.445 6.664 9.034 8.395 12.497c1.732 3.464 3.06 6.09 3.146 6.292a.53.53 0 0 0 .49.317h6.523c.404 0 .693-.433.49-.808 0 0-8.773-17.547-9.004-17.98-.173-.404-.663-.433-.923-.029" fill="#1868DB"/></svg>