<svg id="Layer_1" data-name="Layer 1" xmlns="http://www.w3.org/2000/svg" viewBox="0 0 734.49 304.21"><defs><style>.cls-1{fill:#2962ff}</style></defs><path class="cls-1" d="M187.25 122.59a16.81 16.81 0 0 0 .4 25.29 78.2 78.2 0 0 1 16 18.19q10.47 16.93 12.56 33.16a94.8 94.8 0 0 1-.7 30.54q-2.79 14.33-6.28 22.17-2.19 4.93-3.14 7a17.6 17.6 0 0 1-1.59 2.8 100 100 0 0 1-18.83 20.53q-10.31 8.2-26.88 14.66t-40.14 5.59q-23.56-.88-54.81-11.87-25.28-8.9-55.92-28a16.71 16.71 0 0 1-4.83-23.77l31.85-45.5a16.7 16.7 0 0 1 22.78-4.46q16.25 10.61 27.59 14.77 15.7 5.75 24.43 5.23a21.45 21.45 0 0 0 9.38-2.7 16.05 16.05 0 0 0 7-8.4v-.07a19.44 19.44 0 0 0 .7-9.25q-.71-5.58-5.76-10.47t-17.63-7.51a85.3 85.3 0 0 0-17.18-1.37 16.68 16.68 0 0 1-16.58-17.8l1.57-24.5a16.75 16.75 0 0 1 16.83-15.65q11.67 0 17.92-2 9.94-3.31 12.21-8.37 1.53-3.39.15-8.41a15.93 15.93 0 0 0-6.73-9.1 25.56 25.56 0 0 0-11.54-4.22q-8.9-.87-24.08 3.49-10 2.88-23.31 10.7a16.7 16.7 0 0 1-23.13-6.53L11.12 52.52a16.75 16.75 0 0 1 5.8-22.09q26.85-17 50.52-23.59Q96.77-1.35 118.76.21t37.88 8.38q15.87 6.81 23.38 12.91t8.21 6.81c.23.24 2 2.39 5.24 6.46s6.56 9.83 9.94 17.28A65.7 65.7 0 0 1 209 76.83q.53 13.62-8 29a67.5 67.5 0 0 1-13.75 16.76M611.31 259.1a108.7 108.7 0 0 1-23.39 22.68 117 117 0 0 1-30.55 15.89 118.4 118.4 0 0 1-34.38 6.43 95.4 95.4 0 0 1-34.74-5 89.7 89.7 0 0 1-31.42-18.86q-14.48-13.14-24.58-35.14a177.3 177.3 0 0 1-14.66-49 174 174 0 0 1 34-130.74 167.3 167.3 0 0 1 30.72-30.72 140.7 140.7 0 0 1 37.18-20.59q18.86-7.33 36.13-6.11a91.6 91.6 0 0 1 31.24 7.5 86.8 86.8 0 0 1 24.44 16.24 74.6 74.6 0 0 1 15.72 20.42 200.2 200.2 0 0 1 16.23 44.5 197.6 197.6 0 0 1 5.41 52.18 205.7 205.7 0 0 1-9.41 55.51q-8.74 28.27-27.94 54.81m-49.22-142.08q-6.65-15.36-18.33-17.28t-22.87 7q-11.17 8.89-19 27.58t-6.11 44.51q1.4 24.09 9.43 34.38t18.15 10.3q10.47 0 20.42-8.38a53.4 53.4 0 0 0 15.19-21.64 142 142 0 0 0 7.32-25 104.7 104.7 0 0 0 1.96-20.75 84.2 84.2 0 0 0-2-17.11 87 87 0 0 0-4.16-13.61"/><path class="cls-1" d="M419.32 175.32q-2.8-24.09-24.09-47.13l-3.84-3.67a76.3 76.3 0 0 0-10.47-7.85 70.7 70.7 0 0 0-15.67-7.51 57.4 57.4 0 0 0-19.38-2.79q-10.65.18-21.81 6.11 9.76-11.86 18.32-21.29t20.25-20.77a32.48 32.48 0 0 0 0-46.67l-6-5.8a32.3 32.3 0 0 0-45.07.2q-30.11 29.52-49.63 56.11-26.53 36.12-38.05 65.62t-12.05 53.41q-.51 23.92 5.59 41.37t14.66 29.32q8.55 11.88 15 17.46l4.46 3.87 5.8 4.26a13 13 0 0 1-.12-1.66v-51.7a.06.06 0 0 0-.1-.06l-4.51 3.41c-8.43-.61-9.61-8.59-5.21-11.92l55.58-42.09a7 7 0 0 1 8.51 0l5.24 4a18 18 0 0 1-1-4.31c-.94-8.68 5.11-17 9.12-21.47a5.59 5.59 0 0 1 7.41-.8c4.88 3.51 12.56 10.34 13.5 19a21.7 21.7 0 0 1-2.51 11.74c4.17-3.85 9.43-7.22 15.44-7.87 10.83-1.17 21.17 6.8 26.27 11.53a5.59 5.59 0 0 1 .79 7.29c-4 5.71-12.37 15.71-23.2 16.88a20.4 20.4 0 0 1-3.49.07l10.39 7.87c1.7 8.28-5.66 11.58-10.06 8.25l-1.82-1.38v43.6a158 158 0 0 0 25.75-19.28 119.9 119.9 0 0 0 29-39.45 86 86 0 0 0 7-45.9"/><path d="M864.67 469.92a41.1 41.1 0 0 1-14.91 12.34 46.2 46.2 0 0 1-19.7 5.14 39.6 39.6 0 0 1-20-4.8q-9.76-5.13-15.6-18.16a64.8 64.8 0 0 1-6.68-28.79 71.3 71.3 0 0 1 5.22-26.73 66.3 66.3 0 0 1 14.4-21.59 58.6 58.6 0 0 1 21.25-13.71 34.15 34.15 0 0 1 13.87-2.4 33.8 33.8 0 0 1 12.34 2.91 34.8 34.8 0 0 1 9.77 6.52 29.8 29.8 0 0 1 6.17 8.05 74 74 0 0 1 6.34 17.48 84 84 0 0 1 2.05 20.39 78.5 78.5 0 0 1-3.59 21.93 72.1 72.1 0 0 1-10.93 21.42m-19.53-55.86c-1.84-4.11-4.23-6.39-7.2-6.85s-5.94.51-8.91 2.91-5.49 6-7.54 10.79-2.86 10.63-2.4 17.48q.69 9.6 3.94 13.54t7 3.94a12.22 12.22 0 0 0 8.05-3.43 22 22 0 0 0 6-8.56q4.11-10.62 3.6-17.82a37.7 37.7 0 0 0-2.54-12" transform="translate(-144.75 -359.9)" style="fill:#f1c40f"/></svg>