<svg xmlns="http://www.w3.org/2000/svg" viewBox="0 0 730 490" fill="#fff"><path d="M186.1 308.6c-7.5 6.8-7.3 18.5.4 25.1 6.6 5.7 11.9 11.7 15.9 18.1 6.9 11.2 11.1 22.2 12.5 33s1.2 20.9-.7 30.4c-1.8 9.5-3.9 16.8-6.2 22-1.5 3.3-2.5 5.6-3.1 7-.4 1-1 1.9-1.6 2.8-6 8.4-12.2 15.2-18.7 20.4-6.8 5.4-15.7 10.3-26.7 14.6s-24.3 6.1-39.9 5.6c-15.6-.6-33.8-4.5-54.5-11.8-16.7-5.9-35.3-15.2-55.6-27.8-8.1-5-10.3-15.8-4.8-23.6l31.7-45.2c5.1-7.3 15.2-9.3 22.6-4.4 10.8 7 19.9 11.9 27.4 14.7 10.4 3.8 18.5 5.6 24.3 5.2q5.1-.3 9.3-2.7c3.2-1.8 5.6-4.9 7-8.3v-.1c.9-2.4 1.2-5.5.7-9.2s-2.4-7.2-5.7-10.4-9.2-5.7-17.5-7.5c-4.7-1-10.3-1.5-17-1.4-9.6 0-17.1-8.1-16.5-17.7l1.6-24.3c.6-8.8 7.9-15.6 16.7-15.6 7.7 0 13.7-.6 17.8-2 6.6-2.2 10.6-5 12.1-8.3 1-2.2 1.1-5 .1-8.4-1-3.7-3.5-6.9-6.7-9-3.6-2.3-7.4-3.7-11.5-4.1-5.9-.6-13.9.6-23.9 3.5-6.6 1.9-14.4 5.5-23.2 10.6-8.1 4.8-18.5 1.8-23-6.5l-18.3-34c-4.1-7.7-1.6-17.3 5.8-22 17.7-11.5 34.5-19.3 50.2-23.7q29.1-8.1 51-6.6c21.9 1.5 27.1 3.8 37.6 8.3s18.3 8.8 23.2 12.8c5 4 7.7 6.3 8.1 6.8.2.2 2 2.4 5.2 6.4s6.5 9.8 9.9 17.2c3.3 7.4 5.2 15.6 5.6 24.6.3 9-2.3 18.6-8 28.8-3.1 5.7-7.7 11.2-13.6 16.7m421.5 135.6c-6.2 8.3-14 15.8-23.2 22.6-9.3 6.7-19.4 12-30.4 15.8s-22.4 6-34.2 6.4c-11.8.5-23.3-1.2-34.5-5s-21.6-10.1-31.2-18.7c-9.6-8.7-17.8-20.3-24.5-34.9-7.4-16.2-12.3-32.4-14.6-48.7s-2.4-32.2-.3-47.5q3.15-23.1 12-44.1c8.9-21 13.3-26.8 22.2-38.3 8.9-11.6 19.1-21.7 30.5-30.5s23.8-15.6 37-20.5c12.5-4.9 24.5-6.9 35.9-6.1s21.8 3.3 31 7.5c9.3 4.2 17.3 9.5 24.3 16.1 6.9 6.6 12.1 13.4 15.6 20.3 6.7 13 12.1 27.7 16.1 44.2s5.8 33.8 5.4 51.9c-.5 18-3.6 36.4-9.4 55.2-5.8 18.6-15 36.8-27.7 54.3m-49-141.2c-4.4-10.2-10.5-15.9-18.2-17.2s-15.3 1-22.7 6.9-13.7 15-18.9 27.4-7.2 27.1-6.1 44.2c.9 16 4 27.4 9.4 34.2q7.95 10.2 18 10.2c6.9 0 13.7-2.8 20.3-8.3 6.6-5.6 11.6-12.7 15.1-21.5 3.5-9 5.9-17.3 7.3-24.8s2-14.4 1.9-20.6-.8-11.9-1.9-17c-1.2-5-2.5-9.5-4.2-13.5"/><path d="M416.7 361c-1.9-16-9.8-31.6-23.9-46.8l-3.8-3.6c-2.3-2.2-5.8-4.8-10.4-7.8s-9.8-5.5-15.6-7.5-12.2-2.9-19.3-2.8-14.3 2.1-21.7 6.1c6.5-7.9 12.5-14.9 18.2-21.2 5.7-6.2 12.4-13.1 20.1-20.6 13.1-12.7 13.1-33.7 0-46.4l-6-5.8c-12.5-12.1-32.4-12-44.8.2-20 19.6-36.4 38.1-49.3 55.8-17.6 23.9-30.2 45.7-37.8 65.2s-11.6 37.2-12 53.1c-.3 15.8 1.5 29.5 5.6 41.1s8.9 21.3 14.6 29.1c5.7 7.9 10.6 13.6 14.9 17.3 1.9 1.6 3.3 2.9 4.4 3.8 1.9 1.4 3.8 2.8 5.8 4.2-.1-.5-.1-1.1-.1-1.6v-51.4s-.1-.1-.1 0l-4.5 3.4c-8.4-.6-9.6-8.5-5.2-11.8l55.2-41.8c2.5-1.9 6-1.9 8.5 0l5.2 3.9c-.5-1.4-.9-2.8-1-4.3-.9-8.6 5.1-16.9 9.1-21.3 1.9-2.1 5.1-2.4 7.4-.8 4.9 3.5 12.5 10.3 13.4 18.9.4 4.1-.7 8.1-2.4 11.7 4.1-3.8 9.4-7.2 15.3-7.8 10.8-1.2 21 6.8 26.1 11.5 2 1.9 2.4 5 .8 7.2-3.9 5.7-12.3 15.6-23.1 16.8-1.2.1-2.3.1-3.5.1l10.3 7.8c1.7 8.2-5.6 11.5-10 8.2l-1.8-1.4V465c9-5.4 17.5-11.8 25.6-19.2 12.7-11.7 22.3-24.7 28.8-39.2 6.6-14.4 8.9-29.7 7-45.6"/><path d="M715.5 296.1c-3.6 5-8.6 9.1-14.8 12.3-6.3 3.2-12.8 4.9-19.6 5.1s-13.5-1.4-19.9-4.8c-6.5-3.4-11.6-9.4-15.5-18-4.5-9.5-6.8-19.1-6.6-28.6.1-9.5 1.9-18.4 5.3-26.6s8.2-15.3 14.3-21.5c6.1-6.1 13.2-10.7 21.1-13.6q7.2-2.7 13.8-2.4c4.4.2 8.5 1.2 12.3 2.9 3.7 1.7 7 3.9 9.7 6.5s4.8 5.3 6.1 8q4.05 7.8 6.3 17.4c1.5 6.4 2.2 13.1 2 20.3-.1 7.2-1.3 14.4-3.6 21.8-2.3 7.3-5.9 14.4-10.9 21.2m-19.4-55.5c-1.8-4.1-4.2-6.4-7.2-6.8-3-.5-5.9.5-8.9 2.9s-5.4 6-7.5 10.7q-3 7.2-2.4 17.4c.5 6.4 1.8 10.8 3.9 13.5 2.2 2.6 4.5 3.9 7 3.9 2.7 0 5.4-1.1 8-3.4s4.6-5.1 6-8.5q4.05-10.5 3.6-17.7c-.3-4.9-1.1-8.9-2.5-12" style="fill:#f1c40f"/><path d="m4.4 16.1 101-7.5c3-.2 5.4 2.3 5.1 5.3l-5.1 41.2c-.3 2.3-2.2 4.1-4.5 4.2l-42.1 1.8c-2.5.1-4.5 2.1-4.5 4.7-.1 2.8 2.3 5 5.1 4.8l25.7-1.8c3-.2 5.4 2.3 5.1 5.3l-3.1 25.7c-.3 2.3-2.1 4-4.4 4.2l-25.5 2c-2.4.2-4.3 2.2-4.4 4.6l-.1 1.4c-.1 2.9 2.3 5.2 5.2 4.9l46.9-4.4c2.8-.3 5.3 2 5.2 4.8l-.8 45.9c0 2.5-2 4.5-4.5 4.7l-98.4 5.3c-2.7.1-5-2-5-4.7L0 20.9c0-2.5 1.9-4.6 4.4-4.8"/><path d="M197.2 71.3c4.1 1.9 8.4 4 12.8 6.4s8.3 5.4 11.9 8.9 6.5 7.7 8.9 12.6q3.6 7.35 3.9 17.4c.4 9.5-1.1 18-4.6 25.3s-8.4 13.5-14.8 18.5-14 8.9-22.9 11.7-18.4 4.3-28.6 4.7c-4.7.1-9.5-.1-14.5-.7q-7.5-.9-14.7-2.7c-4.8-1.2-9.5-2.6-14.1-4.3-3.1-1.1-6-2.3-8.9-3.5-2.3-1-3.4-3.6-2.6-6l12.2-34.2c.9-2.6 3.9-3.9 6.4-2.8.8.4 1.7.7 2.5 1.1 2.8 1.3 5.8 2.5 9.1 3.5 3.2 1.1 6.6 2 10.1 2.8s6.9 1.1 10.3 1c5-.3 9.2-1.1 12.6-2.6s5.1-4 4.9-7.5c-.1-2.3-1.3-4-3.5-5.2s-4.7-2.4-7.7-3.5c-.2-.1-.3-.1-.5-.2-2-.5-4.5-1.2-7.7-2.2-3.3-.9-6.8-2.2-10.6-3.8s-7.6-3.5-11.4-5.8-7.3-5-10.5-8.3c-3.2-3.2-5.8-7-7.9-11.2s-3.2-9.1-3.3-14.6c-.3-9.4 1.3-17.8 4.8-25.1s8.2-13.6 14.3-18.7c6-5.2 13.1-9.1 21.2-11.9 8.1-2.7 16.7-4.3 25.8-4.7 8.5-.4 16.9 0 25.2 1.3 6.8 1 13.2 2.6 19.3 4.8 2.3.8 3.6 3.3 3 5.7l-9.5 37.1c-.7 2.8-3.7 4.3-6.4 3.2-3.4-1.4-6.7-2.6-9.7-3.7-4.4-1.5-9.6-2.7-15.5-3.5-1.7-.3-4.1-.4-7.1-.4q-4.2 0-8.4.9c-2.8.6-5.1 1.6-7.1 2.9s-3.1 3.2-3.2 5.6c0 1.1.5 1.9 1.5 2.5s2.2 1.1 3.6 1.4 2.9.6 4.3.8 2.6.4 3.5.5c.1 0 .2 0 .3.1 3.9.8 8 1.7 12.3 2.8 3.9.9 7.5 2.1 11 3.6"/><path d="m331.8 53-16.2 1.9c-2.4.3-4.2 2.3-4.2 4.7v105c0 2.4-1.8 4.4-4.2 4.7l-47.6 5.9c-2.9.4-5.4-1.9-5.3-4.8L257 66.3c.1-2.9-2.4-5.1-5.2-4.9L236 62.9c-2.8.3-5.3-2-5.2-4.9l1.1-39.9c.1-2.4 1.9-4.4 4.3-4.6L335 5.1c3-.3 5.5 2.3 5.1 5.3L336 48.7c-.2 2.3-2 4-4.2 4.3m88.3-49.9 94.1 143.2c1.7 2.5.6 6-2.3 7.1l-54 20.5c-2.2.8-4.6 0-5.8-2l-13.4-22.4c-.9-1.5-2.5-2.4-4.2-2.3l-36 1.2c-2.1.1-3.9 1.5-4.4 3.5l-6 22c-.7 2.6-3.5 4.1-6.1 3.3l-50.4-16.4c-2.8-.9-4.1-4.2-2.7-6.8L412 3.4c1.7-3.1 6.2-3.3 8.1-.3m-5.8 111.7 9.6-1.7c2.9-.5 4.7-3.5 3.6-6.3l-4-11c-1.5-4-7.1-4.2-8.8-.3l-5.6 12.7c-1.5 3.5 1.4 7.3 5.2 6.6M608 53l-16.2 1.9c-2.4.3-4.2 2.3-4.2 4.7v105c0 2.4-1.8 4.4-4.2 4.7l-47.6 5.9c-2.9.4-5.4-1.9-5.3-4.8l2.7-104.1c.1-2.9-2.4-5.1-5.2-4.9L512.1 63c-2.8.3-5.3-2-5.2-4.9l1.1-39.9c.1-2.4 1.9-4.4 4.3-4.6l98.8-8.4c3-.3 5.5 2.3 5.1 5.3L612 48.9c0 2.1-1.8 3.8-4 4.1m15.9-36.9 101-7.5c3-.2 5.4 2.3 5.1 5.3l-5.1 41.2c-.3 2.3-2.2 4.1-4.5 4.2l-42.1 1.8c-2.5.1-4.5 2.1-4.5 4.7-.1 2.8 2.3 5 5.1 4.8l25.7-1.8c3-.2 5.4 2.3 5.1 5.3l-3.1 25.7c-.3 2.3-2.1 4-4.4 4.2l-25.5 2c-2.4.2-4.3 2.2-4.4 4.6l-.1 1.4c-.1 2.9 2.3 5.2 5.2 4.9l46.9-4.4c2.8-.3 5.3 2 5.2 4.8l-.8 45.9c0 2.5-2 4.5-4.5 4.7l-98.4 5.3c-2.7.1-5-2-5-4.7L619.5 21c0-2.6 1.9-4.7 4.4-4.9"/></svg>