<svg xmlns="http://www.w3.org/2000/svg" viewBox="0 0 84 100" xml:space="preserve"><path d="m5.67 3.32 21.88-2.1c3.91-.37 7.19 2.91 6.82 6.82l-2.81 29.51c-.37 3.86 2.82 7.11 6.69 6.83l4.94-.37a6.25 6.25 0 0 0 5.78-6.02l1.06-30.9a6.247 6.247 0 0 1 5.94-6.03L77.44.01c3.83-.19 6.92 3.08 6.52 6.9l-8.52 81.24a6.24 6.24 0 0 1-5.47 5.55l-15.71 1.9c-3.87.47-7.22-2.68-6.99-6.57l.68-11.52c.23-3.95-3.21-7.11-7.12-6.56a6.25 6.25 0 0 0-5.36 5.92l-.73 16.8a6.255 6.255 0 0 1-6.12 5.98l-18.2.35a6.25 6.25 0 0 1-6.37-5.95L.02 9.84a6.255 6.255 0 0 1 5.65-6.52" fill="#075fe4"/></svg>