<svg version="1.0" xmlns="http://www.w3.org/2000/svg" width="234.667" height="234.667" viewBox="0 0 176 176"><path fill="#16f" d="M48.5 29.5 46 31.9v112l2.4 2.8 2.4 2.8 35.4.3c19.4.2 36.3 0 37.5-.3s3.2-1.5 4.3-2.7c2-2.1 2-3.3 2-58.8V31.3l-2.3-2.1C125.4 27 125 27 88.1 27H50.9zm60.5 30c3.3 3.5 3.1 8.1-.4 11.2-3.4 2.9-6.7 2.9-10.1 0-3.7-3.1-3.7-8.2-.1-11.4 3.6-3 7.6-3 10.6.2m-30.2 47.1c2.9 3.3 2.8 6.9-.3 9.9-4.9 5-13.5 1.8-13.5-5 0-7.8 8.5-10.8 13.8-4.9m31 .1c6.4 7.1-4.5 16.7-11.5 10.1-2.6-2.4-3.1-7.4-1-10 3.5-4.4 8.6-4.5 12.5-.1"/></svg>