<svg xmlns="http://www.w3.org/2000/svg" viewBox="0 0 1024 1024" xml:space="preserve"><path d="M635.05 405.15c-5.66-9.05-15.71-15.05-27.21-15.05h-63.96c-.2 0-.36-.16-.36-.36v-95.17c0-18.09-14.8-33.4-32.89-32.96-17.4.42-31.29 14.57-31.29 32.08v128.5c0 17.78 14.46 32.09 32.09 32.09h96.03c3.96 0 7.92-.88 11.66-2.42 9.94-4.09 18.25-12.97 20.21-23.3 1.63-8.67-.17-16.84-4.28-23.41" style="fill:#ff9f43"/><path d="M512 125c-163.73 0-297.69 133.96-297.69 297.69 0 250.06 267.92 461.42 279.83 470.35 5.95 2.98 11.91 5.95 17.86 5.95s11.91-2.98 17.86-5.95c11.91-8.93 279.83-220.29 279.83-470.35C809.69 258.96 675.73 125 512 125m.17 518.81c-122.81 0-222.37-99.56-222.37-222.37s99.56-222.37 222.37-222.37 222.37 99.56 222.37 222.37-99.56 222.37-222.37 222.37" style="fill:#fc427b"/></svg>