<svg version="1.1" id="Layer_1" xmlns="http://www.w3.org/2000/svg" x="0" y="0" viewBox="0 0 475 100" xml:space="preserve"><style>.st0{fill:#075fe4}.st1{fill:#fff}</style><path class="st0" d="m6.1 3.31 21.8-2.09c3.9-.37 7.17 2.9 6.79 6.79l-2.8 29.4c-.37 3.84 2.81 7.09 6.66 6.8l4.92-.37a6.23 6.23 0 0 0 5.76-6l1.06-30.79a6.225 6.225 0 0 1 5.92-6.01l21.4-1.05c3.81-.19 6.9 3.07 6.5 6.87l-8.49 80.95a6.22 6.22 0 0 1-5.45 5.53l-15.65 1.89c-3.86.47-7.19-2.67-6.96-6.55l.68-11.48c.23-3.93-3.2-7.09-7.1-6.53-2.97.42-5.21 2.9-5.34 5.89l-.73 16.74a6.234 6.234 0 0 1-6.1 5.96l-18.13.36c-3.37.07-6.18-2.56-6.35-5.93L.48 9.8A6.217 6.217 0 0 1 6.1 3.31"/><path class="st1" d="M160.73 57.3c.8 5.55.54 10.72-.78 15.5-1.33 4.78-3.46 9.01-6.39 12.66-2.94 3.66-6.59 6.68-10.98 9.05-4.38 2.37-9.27 3.92-14.65 4.64-5.39.72-10.53.56-15.44-.48s-9.29-2.91-13.15-5.61c-3.86-2.69-7.08-6.15-9.65-10.37s-4.22-9.11-4.94-14.65c-.8-5.55-.54-10.71.78-15.5 1.33-4.78 3.46-9.03 6.39-12.72 2.93-3.7 6.59-6.73 10.98-9.11 4.38-2.37 9.27-3.92 14.65-4.64 5.39-.72 10.51-.56 15.38.48 4.86 1.05 9.23 2.92 13.09 5.61s7.07 6.17 9.65 10.43c2.56 4.26 4.25 9.17 5.06 14.71m-50.66 10.25q2.055 4.71 6.51 6.15c2.97.96 6.35.64 10.13-.97 3.7-1.61 6.25-3.8 7.66-6.57s1.47-5.73.18-8.87c-1.37-3.06-3.54-5.08-6.51-6.09-2.98-1-6.31-.7-10.01.9-3.78 1.61-6.37 3.82-7.78 6.63-1.41 2.84-1.47 5.77-.18 8.82"/><path class="st1" d="M168.26 76.48c2.21.4 4.6.6 7.18.6 1.12 0 2.31-.02 3.56-.06s2.37-.16 3.38-.36 1.85-.54 2.53-1.02 1.02-1.21 1.02-2.17c0-1.21-.62-2.11-1.87-2.71s-2.77-1.19-4.58-1.75-3.8-1.22-5.97-1.99c-2.17-.76-4.16-1.89-5.97-3.38s-3.34-3.48-4.58-5.97c-1.25-2.49-1.87-5.75-1.87-9.77 0-2.65.52-5.27 1.57-7.84 1.04-2.57 2.73-4.9 5.07-7 2.33-2.09 5.35-3.78 9.05-5.07s8.16-1.93 13.39-1.93q3.015 0 6.03.24t5.73.66c1.81.28 3.48.56 5 .84.02 0 .03.01.05.01 2.21.41 3.81 2.35 3.81 4.6v11.66c0 2.92-2.64 5.1-5.51 4.6-.13-.02-.27-.05-.4-.07q-2.895-.48-6.27-.48c-.48 0-1.25.02-2.29.06-1.05.04-2.09.16-3.14.36s-1.97.54-2.77 1.03c-.8.48-1.21 1.13-1.21 1.93 0 1.29.64 2.25 1.93 2.89 1.28.64 2.87 1.25 4.76 1.81s3.96 1.25 6.21 2.05 4.32 1.95 6.21 3.44 3.48 3.48 4.76 5.97c1.29 2.49 1.93 5.75 1.93 9.77 0 4.34-.95 7.96-2.83 10.86-1.89 2.89-4.38 5.21-7.48 6.94s-6.65 2.95-10.67 3.68c-4.02.72-8.2 1.09-12.54 1.09-3.38 0-6.69-.2-9.95-.6q-3.075-.375-6.18-1.05c-2.14-.46-3.65-2.38-3.65-4.57v-12.9c0-2.95 2.69-5.16 5.58-4.59.32.07.65.13.98.19m53.8 0c2.21.4 4.6.6 7.18.6 1.12 0 2.31-.02 3.56-.06s2.37-.16 3.38-.36 1.85-.54 2.53-1.02 1.02-1.21 1.02-2.17c0-1.21-.62-2.11-1.87-2.71s-2.77-1.19-4.58-1.75-3.8-1.22-5.97-1.99c-2.17-.76-4.16-1.89-5.97-3.38s-3.34-3.48-4.58-5.97c-1.25-2.49-1.87-5.75-1.87-9.77 0-2.65.52-5.27 1.57-7.84 1.04-2.57 2.73-4.9 5.07-7 2.33-2.09 5.35-3.78 9.05-5.07s8.16-1.93 13.39-1.93q3.015 0 6.03.24t5.73.66c1.81.28 3.48.56 5 .84.02 0 .03.01.05.01 2.21.41 3.81 2.35 3.81 4.6v11.66c0 2.92-2.64 5.1-5.51 4.6-.13-.02-.27-.05-.4-.07q-2.895-.48-6.27-.48c-.48 0-1.25.02-2.29.06-1.05.04-2.09.16-3.14.36s-1.97.54-2.77 1.03c-.8.48-1.21 1.13-1.21 1.93 0 1.29.64 2.25 1.93 2.89 1.28.64 2.87 1.25 4.76 1.81s3.96 1.25 6.21 2.05 4.32 1.95 6.21 3.44 3.48 3.48 4.76 5.97c1.29 2.49 1.93 5.75 1.93 9.77 0 4.34-.95 7.96-2.83 10.86-1.89 2.89-4.38 5.21-7.48 6.94s-6.65 2.95-10.67 3.68c-4.02.72-8.2 1.09-12.54 1.09-3.38 0-6.69-.2-9.95-.6q-3.075-.375-6.18-1.05c-2.14-.46-3.65-2.38-3.65-4.57v-12.9c0-2.95 2.69-5.16 5.58-4.59.31.07.64.13.98.19"/><path class="st1" d="M309.68 90.59h-.24c-2.17 3.06-4.93 5.19-8.26 6.39-3.34 1.21-6.94 1.81-10.79 1.81-3.22 0-6.27-.58-9.17-1.75a22.5 22.5 0 0 1-7.6-5c-2.17-2.17-3.9-4.78-5.19-7.84-1.28-3.05-1.93-6.47-1.93-10.25 0-3.3.64-6.33 1.93-9.11 1.29-2.77 3.03-5.19 5.25-7.24 2.21-2.05 4.83-3.66 7.84-4.82 3.02-1.17 6.29-1.75 9.83-1.75 3.7 0 6.81.54 9.35 1.63 1.27.54 2.44 1.12 3.51 1.73 1.31.75 2.94-.16 2.94-1.67v-.01c0-3.7-1.21-6.15-3.62-7.36s-5.55-1.81-9.41-1.81c-3.54 0-6.84.36-9.89 1.09-2.01.47-4.03 1-6.07 1.58-1.43.41-2.77-.88-2.41-2.33l3.63-14.79c.17-.68.69-1.23 1.37-1.42 3.52-.96 7.18-1.64 10.96-2.04q6.27-.66 12.78-.66c3.94 0 7.8.46 11.58 1.39s7.1 2.43 9.95 4.52 5.13 4.78 6.81 8.08c1.69 3.3 2.49 7.36 2.41 12.18L333.96 95c-.03.99-.79 1.8-1.78 1.88l-20.41 1.73c-1.13.1-2.11-.8-2.11-1.94v-6.08zm-15.32-22.31c-2.73.4-4.99 1.35-6.75 2.83-1.77 1.49-2.53 3.16-2.29 5 .32 1.85 1.47 3.24 3.44 4.16 1.97.93 4.52 1.15 7.66.66 3.14-.48 5.47-1.49 7-3.02s2.13-3.18 1.81-4.94c-.24-1.53-1.27-2.83-3.08-3.92s-4.41-1.33-7.79-.77m124.83-12.42c0-1.53-.56-2.77-1.69-3.74-1.13-.96-2.61-1.45-4.46-1.45-1.93 0-3.46.6-4.58 1.81-1.13 1.21-1.69 2.45-1.69 3.74l.56 31.73c.09 5.35-3.98 9.86-9.32 10.3l-5.56.46c-5.97.49-11.07-4.25-11-10.24l.36-32.38c.08-1.61-.48-2.91-1.69-3.92-1.21-1-2.77-1.51-4.7-1.51-1.53 0-2.95.48-4.28 1.45-1.33.96-1.95 2.33-1.87 4.1l.89 32.16c.17 6.06-4.98 10.92-11.02 10.4l-4.89-.42c-5.17-.44-9.18-4.72-9.29-9.91l-1.05-50c-.11-5.35 3.94-9.86 9.26-10.33l4.09-.36c5.94-.52 11.05 4.16 11.05 10.12h.24c2.57-3.46 5.49-6.17 8.74-8.14 3.26-1.97 7.18-2.95 11.76-2.95 3.78 0 6.93.58 9.47 1.75.63.29 1.25.62 1.86 1 3.19 1.97 7.18 2.18 10.39.24.59-.35 1.19-.69 1.81-.99 2.65-1.33 5.59-1.99 8.8-1.99 3.62 0 6.81.62 9.59 1.87 2.77 1.25 5.11 3 7 5.25s3.34 4.88 4.34 7.9 1.55 6.25 1.63 9.71l.57 36.45a10.17 10.17 0 0 1-9.32 10.29l-5.52.46c-5.99.5-11.1-4.28-11-10.29z"/><circle class="st0" cx="461.97" cy="87.44" r="12.56"/></svg>