<svg
    xmlns="http://www.w3.org/2000/svg"
    viewBox="0 0 512 512"
    id="vector">
    <defs>
        <clipPath id="clip_path_3">
            <path d="M 0 -0.23 L 512 -0.23 L 512 511.77 L 0 511.77 Z M 0 0"/>
        </clipPath>
        <clipPath id="clip_path_15">
            <path d="M 0 -624.38 L 512 -624.38 L 512 -112.38 L 0 -112.38 Z M 0 0"/>
        </clipPath>
    </defs>
    <g id="group">
        <path
            id="path_3"
            clip-path="url(#clip_path_3)"
            d="M 256 697.45 M -168.2 697.45 C -168.2 584.988 -123.477 477.018 -43.955 397.495 C 35.568 317.973 143.538 273.25 256 273.25 C 368.462 273.25 476.432 317.973 555.955 397.495 C 635.477 477.018 680.2 584.988 680.2 697.45 C 680.2 809.912 635.477 917.882 555.955 997.405 C 476.432 1076.927 368.462 1121.65 256 1121.65 C 143.538 1121.65 35.568 1076.927 -43.955 997.405 C -123.477 917.882 -168.2 809.912 -168.2 697.45"
            fill="#ff5252"/>
    </g>
    <path
        id="path"
        d="M 219.78 182.33 L 179.2 225.12 L 179.2 312.02 L 267.89 337.42 L 330.73 316.82 L 330.73 228.68 L 219.78 182.33 Z"
        fill="#ff5252"/>
    <path
        id="path_1"
        d="M 230.03 264.49 L 230.03 316.82 L 209.52 311.64 L 209.52 259.32 L 230.03 264.49 Z"
        fill="#b71c1c"/>
    <path
        id="path_2"
        d="M 337 221.75 L 292 152.94 L 219.74 175.94 L 174.89 222.32 L 174.89 303 L 183.13 305.11 L 183.13 228.84 L 219.93 190.84 L 256.73 247 L 256.73 323.28 L 264.97 325.39 L 337.23 302.39 Z M 312.27 268.52 L 302.27 271.78 L 302.27 260.47 L 312.27 257.21 Z M 299.62 261.23 L 299.62 272.54 L 289.62 275.8 L 289.62 264.49 Z M 289.47 278.68 L 299.47 275.42 L 299.47 286.73 L 289.47 289.98 Z M 302.31 285.77 L 302.31 274.46 L 312.31 271.2 L 312.31 282.51 Z"
        fill="#b71c1c"/>
    <path
        id="path_5"
        d="M 138.98 245.08 M 130.49 245.08 C 130.49 243.287 131.058 241.54 132.111 240.09 C 133.165 238.639 134.652 237.559 136.356 237.006 C 138.061 236.452 139.899 236.452 141.604 237.006 C 143.308 237.559 144.795 238.639 145.849 240.09 C 146.902 241.54 147.47 243.287 147.47 245.08 C 147.47 246.873 146.902 248.62 145.849 250.07 C 144.795 251.521 143.308 252.601 141.604 253.154 C 139.899 253.708 138.061 253.708 136.356 253.154 C 134.652 252.601 133.165 251.521 132.111 250.07 C 131.058 248.62 130.49 246.873 130.49 245.08"
        fill="#ef5350"/>
    <path
        id="path_6"
        d="M 31.95 300.55 M 23.23 300.55 C 23.224 298.705 23.804 296.905 24.886 295.41 C 25.967 293.916 27.496 292.802 29.25 292.231 C 31.004 291.66 32.896 291.66 34.65 292.231 C 36.404 292.802 37.933 293.916 39.014 295.41 C 40.096 296.905 40.676 298.705 40.67 300.55 C 40.676 302.395 40.096 304.195 39.014 305.69 C 37.933 307.184 36.404 308.298 34.65 308.869 C 32.896 309.44 31.004 309.44 29.25 308.869 C 27.496 308.298 25.967 307.184 24.886 305.69 C 23.804 304.195 23.224 302.395 23.23 300.55"
        fill="#ef5350"/>
    <path
        id="path_7"
        d="M 412.74 282.7 M 404.02 282.7 C 404.02 280.388 404.939 278.169 406.574 276.534 C 408.209 274.899 410.428 273.98 412.74 273.98 C 415.052 273.98 417.271 274.899 418.906 276.534 C 420.541 278.169 421.46 280.388 421.46 282.7 C 421.46 285.012 420.541 287.231 418.906 288.866 C 417.271 290.501 415.052 291.42 412.74 291.42 C 410.428 291.42 408.209 290.501 406.574 288.866 C 404.939 287.231 404.02 285.012 404.02 282.7"
        fill="#ef5350"/>
    <path
        id="path_8"
        d="M 360.91 248.48 M 353.63 248.48 C 353.63 246.55 354.398 244.697 355.762 243.332 C 357.127 241.968 358.98 241.2 360.91 241.2 C 362.84 241.2 364.693 241.968 366.058 243.332 C 367.422 244.697 368.19 246.55 368.19 248.48 C 368.19 250.41 367.422 252.263 366.058 253.628 C 364.693 254.992 362.84 255.76 360.91 255.76 C 358.98 255.76 357.127 254.992 355.762 253.628 C 354.398 252.263 353.63 250.41 353.63 248.48"
        fill="#ff1744"/>
    <path
        id="path_9"
        d="M 471.68 268.13 M 464.4 268.13 C 464.4 266.593 464.887 265.095 465.79 263.851 C 466.694 262.607 467.968 261.681 469.43 261.206 C 470.892 260.731 472.468 260.731 473.93 261.206 C 475.392 261.681 476.666 262.607 477.57 263.851 C 478.473 265.095 478.96 266.593 478.96 268.13 C 478.96 269.667 478.473 271.165 477.57 272.409 C 476.666 273.653 475.392 274.579 473.93 275.054 C 472.468 275.529 470.892 275.529 469.43 275.054 C 467.968 274.579 466.694 273.653 465.79 272.409 C 464.887 271.165 464.4 269.667 464.4 268.13"
        fill="#ff1744"/>
    <path
        id="path_10"
        d="M 99.16 282.7 M 91.88 282.7 C 91.88 280.77 92.648 278.917 94.012 277.552 C 95.377 276.188 97.23 275.42 99.16 275.42 C 101.09 275.42 102.943 276.188 104.308 277.552 C 105.672 278.917 106.44 280.77 106.44 282.7 C 106.44 284.63 105.672 286.483 104.308 287.848 C 102.943 289.212 101.09 289.98 99.16 289.98 C 97.23 289.98 95.377 289.212 94.012 287.848 C 92.648 286.483 91.88 284.63 91.88 282.7"
        fill="#ff1744"/>
    <path
        id="path_11"
        d="M 492.62 295.4 M 487.47 295.4 C 487.47 294.035 488.013 292.724 488.978 291.758 C 489.944 290.793 491.255 290.25 492.62 290.25 C 493.985 290.25 495.296 290.793 496.262 291.758 C 497.227 292.724 497.77 294.035 497.77 295.4 C 497.77 296.765 497.227 298.076 496.262 299.042 C 495.296 300.007 493.985 300.55 492.62 300.55 C 491.255 300.55 489.944 300.007 488.978 299.042 C 488.013 298.076 487.47 296.765 487.47 295.4"
        fill="#d50000"/>
    <path
        id="path_12"
        d="M 456.31 305.7 M 451.16 305.7 C 451.157 304.61 451.499 303.547 452.138 302.665 C 452.777 301.782 453.679 301.124 454.715 300.787 C 455.752 300.449 456.868 300.449 457.905 300.787 C 458.941 301.124 459.843 301.782 460.482 302.665 C 461.121 303.547 461.463 304.61 461.46 305.7 C 461.463 306.79 461.121 307.853 460.482 308.735 C 459.843 309.618 458.941 310.276 457.905 310.613 C 456.868 310.951 455.752 310.951 454.715 310.613 C 453.679 310.276 452.777 309.618 452.138 308.735 C 451.499 307.853 451.157 306.79 451.16 305.7"
        fill="#d50000"/>
    <path
        id="path_13"
        d="M 404.01 236.59 M 398.86 236.59 C 398.86 235.225 399.403 233.914 400.368 232.948 C 401.334 231.983 402.645 231.44 404.01 231.44 C 405.375 231.44 406.686 231.983 407.652 232.948 C 408.617 233.914 409.16 235.225 409.16 236.59 C 409.16 237.955 408.617 239.266 407.652 240.232 C 406.686 241.197 405.375 241.74 404.01 241.74 C 402.645 241.74 401.334 241.197 400.368 240.232 C 399.403 239.266 398.86 237.955 398.86 236.59"
        fill="#d50000"/>
    <path
        id="path_14"
        d="M 58.31 253.57 M 53.16 253.57 C 53.16 252.205 53.703 250.894 54.668 249.928 C 55.634 248.963 56.945 248.42 58.31 248.42 C 59.675 248.42 60.986 248.963 61.952 249.928 C 62.917 250.894 63.46 252.205 63.46 253.57 C 63.46 254.657 63.116 255.717 62.476 256.597 C 61.837 257.477 60.936 258.132 59.901 258.468 C 58.867 258.804 57.753 258.804 56.719 258.468 C 55.684 258.132 54.783 257.477 54.144 256.597 C 53.504 255.717 53.16 254.657 53.16 253.57"
        fill="#d50000"/>
    <g id="group_1">
        <path
            id="path_15"
            clip-path="url(#clip_path_15)"
            d="M 256 73.3 M -168.2 73.3 C -168.2 -39.162 -123.477 -147.132 -43.955 -226.655 C 35.568 -306.177 143.538 -350.9 256 -350.9 C 368.462 -350.9 476.432 -306.177 555.955 -226.655 C 635.477 -147.132 680.2 -39.162 680.2 73.3 C 680.2 185.762 635.477 293.732 555.955 373.255 C 476.432 452.777 368.462 497.5 256 497.5 C 143.538 497.5 35.568 452.777 -43.955 373.255 C -123.477 293.732 -168.2 185.762 -168.2 73.3"
            fill="#ff5252"/>
    </g>
</svg>
