<svg id="icons" xmlns="http://www.w3.org/2000/svg" viewBox="0 0 128 128"><defs><style>.cls-7{fill:none;stroke:#000;stroke-linecap:round;stroke-linejoin:round;stroke-width:2px}</style></defs><path d="M31.541 81.5a121.7 121.7 0 0 0 15.424-13.14c3.063-3.062 3.36-4.987 1.592-10.292-1.839-5.519-3.427-10.283 1.208-14.917l2.092-2.1 11.22-11.21a97 97 0 0 0 9.542-11.392A80 80 0 0 0 64 18c-35.88 0-46 20.595-46 46 0 9.078 1.3 17.534 4.6 24.663a111 111 0 0 1 8.941-7.163m75.513-8.61c-5.137-1.087-8.214-4.814-8.039-8.8-.29.28-.582.56-.86.837l-11.2 11.209-2.12 2.11a9.23 9.23 0 0 1-6.853 3.03c-2.153 0-4.492-.644-8.056-1.831a16.9 16.9 0 0 0-5.088-1.076c-1.317 0-2.86.323-5.206 2.668A122 122 0 0 0 46.5 96.459a111 111 0 0 1-7.152 8.932C45.732 108.342 53.829 110 64 110c31.648 0 43.248-16.026 45.546-37.24a4.8 4.8 0 0 1-2.492.13" style="fill:#ffda6e"/><path d="m92.88 70.21-5.92 5.92-2.12 2.11a10.1 10.1 0 0 1-3.81 2.53c-.4 3.95 3.24 6.42 11.39 4.65 10.55-2.29 6.68-13.56.46-15.21m-32.75 38.68c.18.36.37.7.57 1.04h.01c1.07.05 2.17.07 3.29.07a71.2 71.2 0 0 0 15.07-1.47 28 28 0 0 0 1.2-2.63c6.05-14.95-27.79-12.17-20.14 2.99M26.71 63.284c4.391 6.824 10.246 7.582 11.71-1.516s-17.853-8.031-11.71 1.516m8.71-38.574c9.78 11.53 17.57 5.51 18.55-4.43a4.7 4.7 0 0 0-.11-1.66 46 46 0 0 0-18.44 6.09" style="fill:#f9b55a"/><g id="_Group_" data-name="&lt;Group&gt;"><path d="M55.4 44.58 83.42 72.6l-2.11 2.1c-2.1 2.1-3.5 2.1-9.8 0S61 72.6 56.1 77.5c-12.61 12.61-14.01 18.21-23.11 27.32-7.7 7.7-16.11 9.1-17.51 7.7s0-9.81 7.7-17.51c9.11-9.1 14.71-10.5 27.32-23.11 4.9-4.9 4.9-9.11 2.8-15.41s-2.1-7.7 0-9.8Zm-25.91 58.13a2.97 2.97 0 1 0-4.2 0 2.97 2.97 0 0 0 4.2 0" style="fill:#c16f25"/><path style="fill:#cbccd3" d="M94.62 61.39 83.42 72.6 55.4 44.58l11.21-11.2z"/><path d="M100.56 56.01a87 87 0 0 0-5.94 5.38L66.61 33.38A112 112 0 0 0 80.42 15.9a1.964 1.964 0 0 1 2.52-.7 54 54 0 0 1 6.09 3.45 1 1 0 0 1 .25 1.44L78.51 34.08l14.1-11.93a.994.994 0 0 1 1.25-.03 72 72 0 0 1 5.65 4.96c-3.95 1.02-6.54 3.2-5.59 7-4.2 1.4-7.7 6.3-5.6 9.8-2.1 4.91 4.2 8.41 7.7 4.91-1.59 3.72 1.24 6.22 4.54 7.22" style="fill:#464649"/><path d="M112.8 45.06a1.964 1.964 0 0 1-.7 2.52 121 121 0 0 0-11.54 8.43c-3.3-1-6.13-3.5-4.54-7.22-3.5 3.5-9.8 0-7.7-4.91-2.1-3.5 1.4-8.4 5.6-9.8-.95-3.8 1.64-5.98 5.59-7a70 70 0 0 1 4.8 5.14 1 1 0 0 1-.06 1.34l-9.63 9.62 11.79-6.87a.99.99 0 0 1 1.31.28 57.6 57.6 0 0 1 5.08 8.47m-5.484 14.367c-4.922 2.4-3.891 7.574 0 8.521s5.837-11.362 0-8.521" style="fill:#5282ef"/><path class="cls-7" d="m55.4 44.58-2.1 2.11c-2.1 2.1-2.1 3.5 0 9.8S55.4 67 50.5 71.9C37.89 84.51 32.29 85.91 23.18 95.01c-7.7 7.7-9.1 16.11-7.7 17.51s9.81 0 17.51-7.7c9.1-9.11 10.5-14.71 23.11-27.32 4.9-4.9 9.11-4.9 15.41-2.8s7.7 2.1 9.8 0l2.11-2.1"/><circle class="cls-7" cx="27.39" cy="100.61" r="2.97" transform="rotate(-45 27.39 100.61)"/><path class="cls-7" d="M94.62 61.39 66.61 33.38 55.4 44.58 83.42 72.6z"/><path class="cls-7" d="m63.805 36.181 28.014 28.014M58.202 41.783l28.015 28.015" style="opacity:.16"/><path class="cls-7" d="M66.61 33.38A112 112 0 0 0 80.42 15.9a1.964 1.964 0 0 1 2.52-.7 54 54 0 0 1 6.09 3.45 1 1 0 0 1 .25 1.44L78.51 34.08l14.1-11.93a.994.994 0 0 1 1.25-.03 72 72 0 0 1 5.65 4.96 70 70 0 0 1 4.8 5.14 1 1 0 0 1-.06 1.34l-9.63 9.62 11.79-6.87a.99.99 0 0 1 1.31.28 57.6 57.6 0 0 1 5.08 8.47 1.964 1.964 0 0 1-.7 2.52 121 121 0 0 0-11.54 8.43 87 87 0 0 0-5.94 5.38m12.696-1.963c-4.922 2.4-3.891 7.574 0 8.521s5.837-11.362 0-8.521"/><path class="cls-7" d="M99.51 27.08c-3.95 1.02-6.54 3.2-5.59 7-4.2 1.4-7.7 6.3-5.6 9.8-2.1 4.91 4.2 8.41 7.7 4.91-1.59 3.72 1.24 6.22 4.54 7.22"/></g></svg>