<svg xmlns="http://www.w3.org/2000/svg" viewBox="0 0 150 150"><path d="M0 0h150v150H0Z" style="fill:none"/><path d="M127.54 14.92 93 33v57.11a23.8 23.8 0 0 1-.76 7.29 32.5 32.5 0 0 1-1.92 6.52c-.39.39-.39 1.15-.77 1.54-1.15 0-9.59-2.69-13.43-5.37a40 40 0 0 1-4.6-3.84 41 41 0 0 1-3.84-4.6 25 25 0 0 1-3.07-5.37 29 29 0 0 1-1.91-6.14 32.5 32.5 0 0 1-.38-6.14V19.14l-7.67-4.6-38.36 22.63v52.56a43.63 43.63 0 0 0 43.35 43.73 42.36 42.36 0 0 0 21.86-5.75l32.23-18.42a39.67 39.67 0 0 0 21.48-34.91V19.52zM85 115.05a35.1 35.1 0 0 1-10 7.29c-2.3.77-5 1.92-7.29 2.68a41.5 41.5 0 0 1-6.9.77 62 62 0 0 1-8.44-.77 32.5 32.5 0 0 1-6.52-1.91 24.8 24.8 0 0 1-6.14-3.46 37.3 37.3 0 0 1-9.59-9.59c-1.15-1.92-2.3-3.83-3.46-6.14a42 42 0 0 1-1.91-6.52 27.3 27.3 0 0 1-.75-7.67v-48l30.69-18V74c0 19.18 14.19 34.91 32.23 38.75-.77.76-1.16 1.53-1.92 2.3m42.2-34.53a34 34 0 0 1-1.92 5.76 29 29 0 0 1-3.84 6.52c-2.3 2.68-4.6 4.6-10.36 8a49.2 49.2 0 0 1-11.89 4.22c1.92-4.6 1.92-9.59 1.92-15l-.38-52.56 26.85-14.19v51a33.3 33.3 0 0 1-.38 6.14Z" style="fill:#2015ff"/></svg>